<?xml version="1.0" encoding="UTF-8"?>
<svg id="Layer_2" data-name="Layer 2" xmlns="http://www.w3.org/2000/svg" viewBox="0 0 485.44 421.94">
  <defs>
    <style>
      .cls-1, .cls-2, .cls-3, .cls-4, .cls-5 {
        stroke-width: 0px;
      }

      .cls-2 {
        fill: #ff0202;
      }

      .cls-3 {
        fill: #ffc800;
      }

      .cls-4 {
        fill: #fff;
      }

      .cls-5 {
        fill: #000ea8;
      }
    </style>
  </defs>
  <g id="Layer_1-2" data-name="Layer 1">
    <g>
      <rect class="cls-4" x="39.39" y="347.73" width="416.67" height="60.9"/>
      <path class="cls-3" d="m464.37,95.37c-.65-6.96-6.53-12.42-13.7-12.42s-13.05,5.46-13.7,12.42h-5.42v21.96h-3.29v-39.18h-3.66c0-.11.02-.23.02-.34,0-4-3.26-7.25-7.29-7.25s-7.29,3.25-7.29,7.25c0,.12.01.23.02.34h-2.9v-25.74h-2.39v-21.3h-6.25v-13.9h-2.01c-.08-3.93-3.3-7.1-7.28-7.1-.14,0-.28.01-.42.02l1.76-1.94,3.84.51-1.93-3.35,1.68-3.48-3.8.79-2.81-2.66-.42,3.84-3.42,1.83,3.54,1.58.55,2.99c-3.3.64-5.8,3.5-5.87,6.96h-1.57v13.9h-5.94v21.3h-3.28v25.74h-2.34c0-.07.01-.14.01-.21,0-4-3.26-7.25-7.29-7.25s-7.29,3.25-7.29,7.25c0,.07,0,.14.01.21h-29.5v-20.41h-4.16v-20.71h-4.76v-12.43h-1.75c0-.07.01-.15.01-.22,0-3.18-2.05-5.86-4.9-6.84l1.09-1.19,3.65.49-1.83-3.18,1.59-3.31-3.61.75-2.67-2.53-.4,3.64-3.25,1.74,3.36,1.5.31,1.71c-.21-.02-.43-.03-.65-.03-4.03,0-7.29,3.24-7.29,7.25,0,.07,0,.15.01.22h-2.14v12.43h-4.76v20.71h-4.76v20.41h-9.69v39.18h-11.41v-22.77l-8.43-29.35-9.72,29.02.02,23.09h-11.07v-49.03h5.91v-1.09h2.61v-13.03h-2.61v-1.81h-5.91v-4.51h3.96v-9.69h-16.45v9.69h3.95v4.51h-5.6v1.81h-2.92v13.03h2.92v1.09h5.6v49.03h-.75l-25.56-31.94v-16.42h-17.77v16.6l-25.16,25.02V30.1l-35.69,14.6-.07,72.62h-13.5v-25.27l-1.77-4.63-3.11,5.18-2.1-4.96-1.89,4.53h-22.73v-26.69h-1.88v-9.19h-17.52v9.19h-2.44v25.81h-24.72l-2.61-4.86-2.74,5.18-2.52-4.96-2.39,4.75-.03,25.93h-.02v1.8h-.45v118.22h448.15V95.37h-5.42Zm-67.08-59.81c2.3,0,4.16,3,4.16,6.7s-1.86,6.7-4.16,6.7-4.15-3-4.15-6.7,1.86-6.7,4.15-6.7Zm-14.6,0c2.29,0,4.15,3,4.15,6.7s-1.86,6.7-4.15,6.7-4.15-2.99-4.15-6.7,1.86-6.7,4.15-6.7Zm-68.95,5.92c2.14,0,3.87,2.8,3.87,6.24s-1.73,6.24-3.87,6.24-3.87-2.8-3.87-6.24,1.73-6.24,3.87-6.24Zm-13.62,0c2.14,0,3.87,2.8,3.87,6.24s-1.73,6.24-3.87,6.24-3.87-2.79-3.87-6.24,1.74-6.24,3.87-6.24Zm-42.22,55.15c2.31,0,4.19,1.87,4.19,4.17s-1.88,4.17-4.19,4.17-4.19-1.87-4.19-4.17,1.88-4.17,4.19-4.17Z"/>
      <g>
        <path class="cls-5" d="m227.32,366.25h-2.58v9.7h2.58c3.87,0,4.65-2.44,4.65-4.94s-.77-4.75-4.65-4.75Z"/>
        <path class="cls-5" d="m320.78,366.57c-4.13,0-6.97,3.53-6.97,10.08,0,6.93,2.84,10.27,6.97,10.27s6.91-3.34,6.91-10.27c0-6.55-2.97-10.08-6.91-10.08Z"/>
        <path class="cls-5" d="m273.54,366.63h-2.78v10.85h2.78c3.87,0,4.65-2.83,4.65-5.52s-.77-5.33-4.65-5.33Z"/>
        <path class="cls-5" d="m370.87,366.57c-4.13,0-6.97,3.53-6.97,10.08,0,6.93,2.84,10.27,6.97,10.27s6.91-3.34,6.91-10.27c0-6.55-2.97-10.08-6.91-10.08Z"/>
        <path class="cls-5" d="m448.52,197.85H42.91c-11.63,0-21.07,9.43-21.07,21.07v181.96c0,11.63,9.43,21.07,21.07,21.07h405.61c11.63,0,21.07-9.43,21.07-21.07v-181.96c0-11.63-9.43-21.07-21.07-21.07ZM90.95,393.47c0,4.17-2.26,6.42-6.45,6.42h-15.17c-4.2,0-6.45-2.25-6.45-6.42v-33.64c0-4.17,2.26-6.42,6.45-6.42h2.78c4.2,0,6.45,2.25,6.45,6.42v26.45h5.94c4.2,0,6.45,2.25,6.45,6.42v.77Zm21.49,0c0,4.17-2.26,6.42-6.45,6.42h-2.78c-4.2,0-6.45-2.25-6.45-6.42v-33.64c0-4.17,2.26-6.42,6.45-6.42h2.78c4.2,0,6.45,2.25,6.45,6.42v33.64Zm50.54-32.68l-12.07,33.9c-1.23,3.53-3.61,5.2-7.36,5.2h-5.16c-3.74,0-6.13-1.67-7.36-5.2l-12.07-33.9c-1.55-4.43.52-7.38,5.23-7.38h3.49c3.81,0,6.2,1.8,7.16,5.46l6.13,22.66,6.13-22.66c.97-3.66,3.36-5.46,7.16-5.46h3.49c4.71,0,6.84,2.95,5.23,7.38Zm38.34-.13c0,4.17-2.26,6.42-6.45,6.42h-9.75v4.11h8.58c4.2,0,6.46,1.93,6.46,5.39v.06c0,3.53-2.26,5.46-6.46,5.46h-8.58v4.17h9.75c4.2,0,6.45,2.25,6.45,6.42v.77c0,4.17-2.26,6.42-6.45,6.42h-18.91c-4.2,0-6.45-2.25-6.45-6.42v-33.64c0-4.17,2.26-6.42,6.45-6.42h18.91c4.2,0,6.45,2.25,6.45,6.42v.83Zm45.11,31.66c2.35,4.93.97,7.58-4.84,7.58h-2.9c-3.74,0-6.11-1.68-7.36-5.14l-3-8.29c-.31,0-.62,0-.93,0h-2.58v7c0,4.17-2.26,6.42-6.46,6.42h-2.84c-4.2,0-6.45-2.25-6.45-6.42v-33.64c0-4.17,2.26-6.42,6.45-6.42h12.2c16.39,0,20.01,6.74,20.01,16.18,0,4.81-1.69,9.65-5.98,12.9l4.69,9.83Zm24.46-1.74h-.13v2.89c0,4.17-2.26,6.42-6.45,6.42h-2.78c-4.2,0-6.45-2.25-6.45-6.42v-33.64c0-4.17,2.26-6.42,6.45-6.42h9.17c18.33,0,23.5,6.74,23.5,18.81s-5.16,18.36-23.3,18.36Zm49.89,9.69c-11.88,0-22.4-6.67-22.4-23.56s10.65-23.6,22.53-23.6,22.4,7.03,22.4,23.6-10.65,23.56-22.53,23.56Zm50.08,0c-11.88,0-22.4-6.67-22.4-23.56s10.65-23.6,22.53-23.6,22.4,7.03,22.4,23.6-10.65,23.56-22.53,23.56Zm57.7-6.8c0,4.17-2.26,6.42-6.45,6.42h-15.17c-4.2,0-6.45-2.25-6.45-6.42v-33.64c0-4.17,2.26-6.42,6.45-6.42h2.78c4.2,0,6.45,2.25,6.45,6.42v26.45h5.94c4.2,0,6.45,2.25,6.45,6.42v.77Z"/>
      </g>
      <path class="cls-1" d="m321.3,342.19c-15.17,0-26.57-7.2-32.1-20.28l-4.17-9.86-9.59,4.77c-6.94,3.45-14.21,5.35-20.47,5.35-7.32,0-12.84-1.63-16.87-4.98l-5.69-4.74-6.22,4.02c-5.32,3.44-10.84,5.19-16.38,5.19-7.83,0-14.19-2.1-18.92-6.24l-6.56-5.74-6.62,5.67c-8.26,7.08-16.13,10.67-23.39,10.67s-13.49-2.4-17.83-6.93l-7.32-7.64-7.27,7.68c-13.92,14.71-32.65,22.81-52.75,22.81-38.78,0-69.16-29.18-69.16-66.43,0-17.33,7.12-34.91,18.57-45.86l4-3.83-1.09-5.43c-1.22-6.08-1.87-12.58-1.87-18.81,0-48.15,36.16-79.27,92.13-79.27,19.08,0,33.7,3.99,43.46,11.86,9.35,7.54,14.09,18.91,14.09,33.78,0,1.46-.06,3.08-.19,4.81l-.92,12.89,12.73-2.26c.77-.14,1.43-.23,2.02-.29l6.08-.6,1.74-4.33c5.83-2.15,12.31-3.24,19.33-3.24,5.64,0,11.33.8,16.45,2.32l10.89,3.23,1.9-11.2c1.9-11.18,3.82-20.22,5.6-26.42,7.85-6.31,17.69-9.26,30.71-9.26,19.73,0,30.81,8.57,32.93,25.47l2.19,17.48,13.95-10.75c5.69-4.39,12.01-6.52,19.32-6.52,15.35,0,37.16,13.65,37.16,26.39,0,.42-.02.92-.06,1.53l-2,28.21,19.38-20.6c6.62-7.04,13.72-10.97,21.09-11.7l6.08-.6,1.74-4.33c5.83-2.15,12.31-3.24,19.33-3.24,19.24,0,38.71,9.06,38.71,26.39,0,5.66-1.72,17.9-3.54,30.85-2.57,18.27-5.49,38.99-5.49,53.61,0,2.58.39,8.5,1.21,14.43-5.54,10.8-17.7,21.45-31.14,21.45-7.83,0-14.19-2.1-18.92-6.24l-6.56-5.74-6.62,5.67c-8.26,7.08-16.13,10.67-23.39,10.67-5.29,0-9.94-1.24-13.83-3.68l-6.76-4.24-5.67,5.62c-12.21,12.09-27.22,18.48-43.42,18.48Z"/>
      <g>
        <path class="cls-2" d="m14.67,276.81c0-15.66,6.71-29.52,14.97-36.71,6.19,20.54,27.87,58.53,41.81,58.53,2.58,0,4.39-1.28,4.39-3.85,0-13.61-41.55-44.41-41.55-91.91,0-37.74,26.84-66.23,78.97-66.23,28.91,0,44.39,8.47,44.39,32.6,0,20.28-11.1,46.72-21.42,60.84-10.07-22.59-26.32-39.79-35.1-39.79-2.06,0-3.1,1.03-3.1,2.82,0,9.5,33.04,37.22,33.04,74.45,0,32.35-24.78,62.64-60.39,62.64-29.68,0-56-21.31-56-53.4Z"/>
        <path class="cls-2" d="m241.78,284.26c0-26.19,7.48-100.12,15.48-132.47,4.13-1.8,11.36-3.85,19.1-3.85,13.94,0,20.13,4.11,20.13,18.48,0,23.1-16.26,90.88-16.26,119.37,0,5.39.77,11.81,2.84,17.46-6.19,4.36-16.78,7.7-27.36,7.7s-13.94-7.96-13.94-26.7Z"/>
        <path class="cls-2" d="m298.57,306.36c0-5.9,1.29-10.53,2.58-13.09,1.03.77,3.35,1.54,5.42,1.54,12.65,0,22.21-23.7,25.29-37.48,1.75-7.8-3.44-7.38-3.96-8.92-11.1,20.02-28.56,45.63-46.11,55.64,6.97-9.76,12.39-30.04,18.07-52.11,14.71-58.02,26.32-79.33,43.1-79.33,7.23,0,18.78,1.62,26.07,9.34,3.14,3.33,2.94,18.77-2.31,23.24,0,0-1.24-1.7-6.67-1.8-9.19-.18-11.96,1.27-13.47,4.29,0,0,5.89-.11,9.48,1.03,5.29,1.68,15.14,9.11,16,10.29,6.06,8.28,6.5,11.26,6.5,27.8,0,60.33-34.84,82.66-58.33,82.66-12.39,0-21.68-7.19-21.68-23.1Z"/>
        <path class="cls-2" d="m236.62,202.62c0-5.39-4.65-12.84-21.16-12.84-2.07,3.85-6.19,14.12-9.03,26.7-1.55-8.22-6.97-19.25-19.1-19.25-29.68,0-43.1,77.79-43.1,105.51,0,8.47,4.9,11.55,11.1,11.55,11.1,0,27.1-17.71,38.45-44.16l2.07.51c-.77,4.11-2.07,11.3-2.07,16.94,0,13.61,5.16,22.33,17.03,22.33,9.03,0,15.49-4.88,18.84-7.96-1.55-4.36-2.06-9.24-2.06-14.89,0-29.78,9.03-72.39,9.03-84.46Zm-69.92,68.54c-5.2-2.16.87-41.71,14.87-44.24,2.36-.43,5.75.06,7.5,2.31,7.28,9.32-17.01,44.16-22.38,41.94Z"/>
        <path class="cls-2" d="m473.27,202.62c0-5.39-4.65-12.84-21.16-12.84-2.06,3.85-6.19,14.12-9.03,26.7-1.55-8.22-6.97-19.25-19.1-19.25-29.68,0-43.1,77.79-43.1,105.51,0,8.47,4.9,11.55,11.1,11.55,11.1,0,27.1-17.71,38.45-44.16l2.06.51c-.77,4.11-2.06,11.3-2.06,16.94,0,13.61,5.16,22.33,17.03,22.33,9.03,0,15.49-4.88,18.84-7.96-1.55-4.36-2.06-9.24-2.06-14.89,0-29.78,9.03-72.39,9.03-84.46Zm-70.27,68.54c-5.2-2.16.87-41.71,14.87-44.24,2.36-.43,5.75.06,7.5,2.31,7.28,9.32-17.01,44.16-22.38,41.94Z"/>
      </g>
    </g>
  </g>
</svg>